<svg width="126" height="37" viewBox="0 0 126 37" fill="none" xmlns="http://www.w3.org/2000/svg">
<path d="M8.66232 14.0684H0V22.7396H8.66232V14.0684Z" fill="white"/>
<path d="M0.0214844 0.0449219V8.58067H18.1056C21.7149 8.58067 24.7677 10.7409 24.7677 13.3002V23.4844C24.7677 26.036 21.7149 28.2039 18.1056 28.2039H0.0214844V36.7396H18.1056C26.4822 36.7396 33.3022 30.7932 33.3022 23.4844V13.3002C33.3022 5.99134 26.4822 0.0449219 18.1056 0.0449219H0.0214844Z" fill="white"/>
<path d="M65.1565 14.0684H56.4941V22.7396H65.1565V14.0684Z" fill="white"/>
<path d="M55.3278 0C48.0265 0 42.0938 6.81956 42.0938 15.2123V36.5667H50.6282V15.2123C50.6282 11.5993 52.7863 8.53575 55.3354 8.53575H66.0204C68.577 8.53575 70.735 11.5918 70.735 15.2123V36.5667H79.262V15.2123C79.262 6.82709 73.3217 0 66.0204 0H55.3354H55.3278Z" fill="white"/>
<path d="M117.459 0V21.3544C117.459 24.9674 115.301 28.0234 112.751 28.0234H102.074C99.5173 28.0234 97.3668 24.9674 97.3668 21.3544V0H88.8398V21.3544C88.8398 29.7396 94.7802 36.5667 102.081 36.5667H112.759C120.06 36.5667 126.001 29.7472 126.001 21.3544V0H117.474H117.459Z" fill="white"/>
</svg>
