<svg width="73" height="21" viewBox="0 0 73 21" fill="none" xmlns="http://www.w3.org/2000/svg">
<g clip-path="url(#clip0_1_1325)">
<path d="M4.95669 8.0083H0V12.9444H4.95669V8.0083Z" fill="black"/>
<path d="M0.0136719 0.0258789V4.88489H10.3616C12.4269 4.88489 14.1738 6.11464 14.1738 7.57148V13.3689C14.1738 14.8214 12.4269 16.0555 10.3616 16.0555H0.0136719V20.9145H10.3616C15.1548 20.9145 19.0573 17.5294 19.0573 13.3689V7.57148C19.0573 3.4109 15.1548 0.0258789 10.3616 0.0258789H0.0136719Z" fill="black"/>
<path d="M37.2829 8.0083H32.3262V12.9444H37.2829V8.0083Z" fill="black"/>
<path d="M31.6587 0C27.4808 0 24.0859 3.88206 24.0859 8.65966V20.8157H28.9695V8.65966C28.9695 6.60294 30.2043 4.85901 31.663 4.85901H37.7771C39.24 4.85901 40.4748 6.59865 40.4748 8.65966V20.8157H45.3541V8.65966C45.3541 3.88635 41.955 0 37.7771 0H31.663H31.6587Z" fill="black"/>
<path d="M67.2119 0V12.1561C67.2119 14.2128 65.9771 15.9525 64.5185 15.9525H58.4086C56.9457 15.9525 55.7152 14.2128 55.7152 12.1561V0H50.8359V12.1561C50.8359 16.9294 54.2351 20.8157 58.413 20.8157H64.5228C68.7007 20.8157 72.0998 16.9337 72.0998 12.1561V0H67.2205H67.2119Z" fill="black"/>
</g>
<defs>
<clipPath id="clip0_1_1325">
<rect width="72.1" height="20.9143" fill="white"/>
</clipPath>
</defs>
</svg>
